PathFileType	4	(X/Y/Z)	RBDS08\RBDS08runT45.trc
DataRate	CameraRate	NumFrames	NumMarkers	Units	OrigDataRate	OrigDataStartFrame	OrigNumFrames
150.000000	150.000000	6	33	mm	150.000000	3375	4500
Frame#	Time	L.ASIS			L.Heel.Bottom			L.Heel.Lateral			L.Heel.Top			L.Iliac.Crest			L.MT1			L.MT5			L.PSIS			L.Shank.Bottom.Lateral			L.Shank.Bottom.Medial			L.Shank.Top.Lateral			L.Shank.Top.Medial			L.Thigh.Bottom.Lateral			L.Thigh.Bottom.Medial			L.Thigh.Top.Lateral			L.Thigh.Top.Medial			R.ASIS			R.ASY			R.Heel.Bottom			R.Heel.Lateral			R.Heel.Top			R.Iliac.Crest			R.MT1			R.MT5			R.PSIS			R.Shank.Bottom.Lateral			R.Shank.Bottom.Medial			R.Shank.Top.Lateral			R.Shank.Top.Medial			R.Thigh.Bottom.Lateral			R.Thigh.Bottom.Medial			R.Thigh.Top.Lateral			R.Thigh.Top.Medial			
		X1	Y1	Z1	X2	Y2	Z2	X3	Y3	Z3	X4	Y4	Z4	X5	Y5	Z5	X6	Y6	Z6	X7	Y7	Z7	X8	Y8	Z8	X9	Y9	Z9	X10	Y10	Z10	X11	Y11	Z11	X12	Y12	Z12	X13	Y13	Z13	X14	Y14	Z14	X15	Y15	Z15	X16	Y16	Z16	X17	Y17	Z17	X18	Y18	Z18	X19	Y19	Z19	X20	Y20	Z20	X21	Y21	Z21	X22	Y22	Z22	X23	Y23	Z23	X24	Y24	Z24	X25	Y25	Z25	X26	Y26	Z26	X27	Y27	Z27	X28	Y28	Z28	X29	Y29	Z29	X30	Y30	Z30	X31	Y31	Z31	X32	Y32	Z32	X33	Y33	Z33	

3376	22.5	2222.749673799264	969.5432016815411	910.7957102074787	1622.001586084936	138.7434374802041	997.5216501273535	1658.5320621657	135.8623791603442	953.7321462349114	1658.476203355541	175.0399756668076	1001.11620790858	2188.641396204333	1047.494324454493	892.8708839231311	1821.991662201942	47.97124030113887	1046.898974984128	1781.284690352624	49.9830914992305	940.8540478016502	2067.172000375857	1018.311742392598	998.3163553938969	1762.852770068275	212.8800938819517	944.7880282669194	1731.820864703968	241.4459962029251	974.6636617501233	1805.032621901217	278.1028500743622	921.6196516340409	1779.476149504455	309.3722947558543	956.4772388149426	2027.636602794494	612.4912067971841	867.5065892912971	1973.287250337516	624.2720073325524	914.990068826161	2039.653406152793	722.1662857277889	858.0183371826826	1992.637651266677	732.4598337871555	909.1488703052643	2252.871773039054	965.7645410369105	1130.978430310923	4987277202.709948	-4454775425.15087	-465747643.4628702	1995.394524635918	482.2299048320112	1085.943149455788	2027.082014480475	471.5032353483745	1126.513602889402	2042.230318816077	499.7238336657948	1080.768371332363	2203.030777838223	1038.48445243921	1178.287115457501	2130.926668180086	300.7130030051949	1047.748806604661	2113.46528127514	332.0162866347807	1152.744710233854	2079.077410724093	1013.394960003342	1098.516396409791	2168.73269910945	508.5616870484619	1127.049043977717	2155.567404893028	535.7979448797308	1081.057716853424	2237.056616151874	553.1224998077342	1131.055644510134	2224.543483284773	576.4376971704603	1084.338868781012	2419.982643603978	674.8912260898609	1159.941314214985	2381.109622338402	636.25266166574	1112.013612921893	2329.57854681131	733.9594584448635	1186.319333050082	2291.327019315529	692.3069358767262	1146.555967779511	
3377	22.50666666666667	2226.529234034929	972.3254046692385	911.1240857439515	1605.496986267001	155.2528167819909	999.3499653087221	1640.577126614646	149.1232682945121	955.0675024603012	1644.337389757907	188.4474080775595	1001.72960095792	2195.285474550988	1051.380182261751	893.7054022027826	1796.960162992869	48.52476555868408	1046.51034712895	1754.352649170626	52.92821391427167	941.283217321635	2070.871161507135	1022.277883520521	996.8886809023743	1745.030143459502	223.0580210104738	944.7306704071641	1715.032916586938	250.7803600391685	976.1116985987684	1786.84556632661	288.7610236995544	922.2927371749731	1762.320336403712	319.0973248738869	958.5785078770756	2017.721312367717	620.5745990662328	868.3179519048265	1964.054168149498	635.062556611646	915.8877827748566	2034.866945777552	729.50647168126	858.6359720015299	1988.572284270771	742.1176447868066	909.9178748545527	2255.999456520563	972.2332308770669	1130.364868229731	4992792641.705338	-4459705321.782703	-466264162.3034454	2013.307140853187	455.3184563020808	1084.064085281949	2045.595956614172	447.0646752082287	1124.703150632004	2058.387664970798	476.8490948332743	1079.203849115063	2205.814838503188	1044.443296229078	1178.23069635984	2164.290264021573	286.6031666907024	1045.957513790474	2143.59175307551	315.8728143624814	1150.961706714929	2082.122798445982	1019.095804176072	1097.716824687702	2183.529039333312	496.7718704116828	1125.48018472925	2168.673749675337	522.3824275661887	1079.133240050457	2247.996539784684	546.7536258739052	1129.636068620228	2234.063751416998	568.5154489850282	1082.616267939514	2425.947935105916	687.0602493533891	1159.708629747859	2387.08521341472	646.6498361834664	1113.239349559009	2334.625389973128	744.4781444608377	1186.859267811144	2296.773285748891	701.9324827501374	1147.788135343363	
3378	22.51333333333334	2230.383948993338	974.9481320223723	911.6163921659814	1591.342376877368	172.6194257284871	1001.757023640828	1624.326420834346	163.2228576056423	956.8588145187155	1632.388551705257	202.3788045196721	1002.54580597485	2201.539020815156	1055.100018857289	894.5135619173705	1772.978621455329	49.85625752950587	1045.687130507776	1727.938179085123	56.79438214960062	941.818078599504	2074.640488543637	1026.204269454478	995.466057423784	1728.649651919766	233.5997124187346	944.5626849274912	1699.893281357455	260.2648416831679	977.6808850325116	1770.026217582657	299.869283854663	922.9417091214394	1746.667463217679	329.0669725692727	960.816405159507	2008.777986372493	629.0904193393975	868.9684548546898	1955.829644977078	646.0904665682746	916.5427758248665	2030.837424100599	737.1177266668124	859.1811468181216	1985.362433546595	751.8489791273067	910.5977286148297	2259.005424704381	978.3186022439093	1129.99522451812	4998312145.552951	-4464638854.184574	-466781062.883004	2033.304872901145	428.3425996487163	1081.710417310313	2065.870668621183	422.6615385063743	1122.507592996985	2076.307618058456	453.6754102697295	1077.102467226314	2208.429727351134	1050.201437811604	1178.334921076478	2198.401822704239	273.4942401373427	1044.650567625706	2174.540533095616	300.6581993066841	1149.424352941968	2085.201917061328	1024.692661180669	1096.818940888966	2199.11714354144	484.5736775834582	1123.644345170216	2182.902767664094	508.3369284604946	1076.841092097307	2259.3767667303	539.5728177919458	1127.877949141172	2244.347711254967	559.5846132064565	1080.468486391608	2431.125332467399	698.4205702324965	1159.567562981533	2392.136584562399	656.3261148998926	1114.735683887425	2339.064222598678	754.4289459936531	1187.363199296652	2301.514489588318	710.9017285037602	1149.254871011273	
3379	22.52	2234.230473984737	977.3823568294436	912.2781021949887	1579.372483275712	190.6442784160953	1004.697347345148	1609.646413985657	178.0782766283272	959.0659099104885	1622.397142284533	216.7291887070356	1003.530835858756	2207.31802362745	1058.615004983014	895.2332971309412	1750.105904387654	52.20651176882626	1044.393307975148	1702.153085742364	61.80164923796919	942.432724372766	2078.389773022783	1030.076624530797	994.0743121967222	1713.634298310141	244.4645412860335	944.2942138023227	1686.294269395576	269.9178994642234	979.3028511067873	1754.593073210139	311.322887803618	923.5587952255825	1732.513420506009	339.2376805822178	963.1107901754838	2000.839615255707	637.8353738504056	869.5162459381061	1948.64554634106	657.1249248998519	917.053858090605	2027.512912039751	744.8429797855721	859.6883503318387	1982.946599225451	761.4786391057737	911.2502656207045	2261.771389011477	983.8827705432527	1129.899495351424	5003835715.75012	-4469576023.696658	-467298345.3425606	2055.231475743242	401.4914678047054	1078.854170156188	2087.705161511155	398.46711570703	1119.914572492208	2095.885618911579	430.373634536122	1074.457900957583	2210.840621411737	1055.678450813579	1178.594485085073	2233.080681407411	261.3888578596836	1043.905782009894	2206.013358173156	286.4005128110746	1148.195375829189	2088.244174468347	1030.10563343147	1095.851546253349	2215.407099492406	472.0176970367221	1121.57035962059	2198.200963508434	493.7785815615012	1074.217790390879	2271.169515599357	531.5979638553451	1125.811456166062	2255.410521118338	549.7282465536388	1077.931148573919	2435.558827482216	708.8599608710056	1159.533290775046	2396.377603420736	665.1271022895741	1116.488699150867	2342.943331172356	763.7130407241544	1187.808642632387	2305.602463648318	719.1191672113252	1150.935174489011	
3380	22.52666666666667	2237.98247596076	979.6268512914114	913.0975029474547	1569.281505249561	209.1197663164527	1008.076203530322	1596.335518663372	193.6049167659927	961.6135424121937	1614.008506603052	231.4113587013714	1004.655520037746	2212.570298807115	1061.888421750019	895.8225548197254	1728.362261597327	55.79965514660737	1042.6418706607	1677.146799248373	68.16144333030958	943.0817415841786	2082.02594957616	1033.880726505767	992.7475632085637	1699.869236954501	255.6354080111718	943.9612135063372	1674.071064160814	279.8074424874167	980.9133564512592	1740.538030880944	323.0242501567545	924.1471931096941	1719.81788460132	349.5958687109931	965.3797571022382	1993.937427606907	646.57977095262	870.0278700818772	1942.53012145352	667.9133060930802	917.5316185486112	2024.837546862942	752.5060481392532	860.1936376780023	1981.251374412571	770.8190600004756	911.935223343581	2264.190899391133	988.8191996998509	1130.085179171782	5009363353.794184	-4474516831.659131	-467816009.8231269	2078.887384980209	374.9272098218499	1075.496650879342	2110.872075562355	374.6123851191419	1116.92998266827	2116.971299227064	407.0938313331991	1071.291700037812	2213.021788094073	1060.796729193771	1179.002023825062	2268.120134947302	250.2717493923967	1043.75498100969	2237.71284488049	273.0821881340761	1147.310502040102	2091.180102048798	1035.260344235469	1094.86097491933	2232.282848149539	459.1290771410635	1119.298778126092	2214.466230349834	478.8099451585009	1071.318209579012	2283.317635347524	522.8340260999306	1123.490638895989	2267.215427661607	539.0254082250889	1075.068302450963	2439.283271878898	718.2485775125056	1159.622381596205	2399.891425296817	672.9062453720215	1118.473950386561	2346.309077396644	772.2205063564833	1188.187435829913	2309.079922616502	726.502137588766	1152.794334215058	
3381	22.53333333333333	2241.555120115428	981.7050485444709	914.0446068342501	1560.646468955365	227.8449729695743	1011.750724263795	1584.144687517358	209.7185180441667	964.3924422320546	1606.774496733209	246.360960498723	1005.897376006702	2217.27103683563	1064.892567734735	896.2625716588072	1707.728174067728	60.82386426331507	1040.500229265096	1653.10248688564	76.05365385573414	943.7026103951478	2085.458347452573	1037.600298604437	991.5252735525985	1687.21719545823	267.1139697094275	943.621652859634	1663.022241816361	290.0402157100889	982.4574811070432	1727.832053664251	334.8839945712775	924.7192229032195	1708.512915484351	360.1528276625227	967.5456473750526	1988.105561509772	655.0755142016421	870.566987592092	1937.507789963732	678.1890705069156	918.0780160068927	2022.761289711224	759.9166176356792	860.7272589594567	1980.197614520854	779.6746617314575	912.6963288759674	2266.178122014067	993.0613550698969	1130.535589837544	5014895061.182482	-4479461279.412171	-468334056.4657118	2104.039009233361	348.7897465886963	1071.6778171937	2135.133888619485	351.1910956885542	1113.58606898774	2139.374531459738	383.9677965727017	1067.660189873906	2214.950025892027	1065.481937757513	1179.549330240117	2303.285859910291	240.1167049149931	1044.174525859777	2269.362474063814	260.6483935108372	1146.771857903286	2093.94377982619	1040.089152329094	1093.904223692757	2249.611197705374	445.9120697475756	1116.882295768204	2231.552808212412	463.5177292173175	1068.216063488098	2295.74107707555	513.2759244214299	1120.993863704856	2279.674414771577	527.5486930076045	1071.973612964095	2442.321360652023	726.4381038291535	1159.850764764479	2402.723380275294	679.5285374419703	1120.651352967716	2349.196216100661	779.82663879445	1188.507643966854	2311.972276566636	732.97480010303	1154.783104489195	
